<svg xmlns="http://www.w3.org/2000/svg" viewBox="0 0 748.99999 748.99999"><defs><style>.cls-1{fill:#525967;}.cls-2{fill:#454b57;}.cls-3{fill:#0acf83;}.cls-4{fill:#a259ff;}.cls-5{fill:#f24e1e;}.cls-6{fill:#ff7262;}.cls-7{fill:#1abcfe;}</style></defs><title>Figma</title><g id="Layer_2" data-name="Layer 2"><g id="Layer_1-2" data-name="Layer 1"><g id="Layer_2-2" data-name="Layer 2"><g id="Layer_1_copy" data-name="Layer 1 copy"><g id="Figma_icon" data-name="Figma icon"><g id="ads_manager" data-name="ads manager"><rect class="cls-1" width="748.99999" height="748.99999" rx="109.18367" ry="109.18367"/><path class="cls-2" d="M639.81632,32.75509a76.42855,76.42855,0,0,1,76.42855,76.42858V639.81632a76.4285,76.4285,0,0,1-76.42855,76.42855H109.18367a76.42855,76.42855,0,0,1-76.42858-76.42855V109.18367a76.42859,76.42859,0,0,1,76.42858-76.42858H639.81632m0-32.75509H109.18367A109.18368,109.18368,0,0,0,0,109.18367V639.81632A109.18365,109.18365,0,0,0,109.18367,749H639.81632A109.18361,109.18361,0,0,0,749,639.81632V109.18367A109.18365,109.18365,0,0,0,639.81632,0Z"/><path id="path0_fill" data-name="path0 fill" class="cls-3" d="M281.14794,654.556A93.352,93.352,0,0,0,374.5,561.204V467.852h-93.352a93.352,93.352,0,0,0-.019,186.70407Z"/><path id="path1_fill" data-name="path1 fill" class="cls-4" d="M187.79591,374.5a93.35207,93.35207,0,0,1,93.352-93.352H374.5V467.852h-93.352A93.35207,93.35207,0,0,1,187.79591,374.5Z"/><path id="path1_fill-2" data-name="path1 fill-2" class="cls-5" d="M187.79591,187.79591a93.35207,93.35207,0,0,1,93.352-93.352H374.5V281.14794h-93.352A93.35206,93.35206,0,0,1,187.79591,187.79591Z"/><path id="path2_fill" data-name="path2 fill" class="cls-6" d="M374.5,94.9898h93.352a93.352,93.352,0,0,1,.019,186.70408H374.5Z"/><path id="path3_fill" data-name="path3 fill" class="cls-7" d="M561.20405,374.5a93.352,93.352,0,1,1-93.352-93.352h0A93.35207,93.35207,0,0,1,561.20405,374.5Z"/></g></g></g></g></g></g></svg>